<?xml version="1.0" encoding="UTF-8" standalone="no"?>
<!DOCTYPE svg PUBLIC "-//W3C//DTD SVG 1.1//EN"
 "http://www.w3.org/Graphics/SVG/1.1/DTD/svg11.dtd">
<!-- Generated by graphviz version 2.43.0 (0)
 -->
<!-- Title: %3 Pages: 1 -->
<svg width="266pt" height="895pt"
 viewBox="0.00 0.00 266.00 895.00" xmlns="http://www.w3.org/2000/svg" xmlns:xlink="http://www.w3.org/1999/xlink">
<g id="graph0" class="graph" transform="scale(1 1) rotate(0) translate(4 891)">
<title>%3</title>
<polygon fill="white" stroke="transparent" points="-4,4 -4,-891 262,-891 262,4 -4,4"/>
<!-- (below main) -->
<g id="node1" class="node">
<title>(below main)</title>
<polygon fill="#ff0000" stroke="#ff0000" points="165,-681 93,-681 93,-618 165,-618 165,-681"/>
<text text-anchor="middle" x="129" y="-669" font-family="Arial" font-size="10.00" fill="#ffffff">libc&#45;2.31.so</text>
<text text-anchor="middle" x="129" y="-658" font-family="Arial" font-size="10.00" fill="#ffffff">(below main)</text>
<text text-anchor="middle" x="129" y="-647" font-family="Arial" font-size="10.00" fill="#ffffff">99.99%</text>
<text text-anchor="middle" x="129" y="-636" font-family="Arial" font-size="10.00" fill="#ffffff">(0.00%)</text>
<text text-anchor="middle" x="129" y="-625" font-family="Arial" font-size="10.00" fill="#ffffff">1×</text>
</g>
<!-- main -->
<g id="node2" class="node">
<title>main</title>
<polygon fill="#ff0000" stroke="#ff0000" points="180.5,-578 77.5,-578 77.5,-515 180.5,-515 180.5,-578"/>
<text text-anchor="middle" x="129" y="-566" font-family="Arial" font-size="10.00" fill="#ffffff">matrix_theory_gprof</text>
<text text-anchor="middle" x="129" y="-555" font-family="Arial" font-size="10.00" fill="#ffffff">main</text>
<text text-anchor="middle" x="129" y="-544" font-family="Arial" font-size="10.00" fill="#ffffff">99.99%</text>
<text text-anchor="middle" x="129" y="-533" font-family="Arial" font-size="10.00" fill="#ffffff">(0.00%)</text>
<text text-anchor="middle" x="129" y="-522" font-family="Arial" font-size="10.00" fill="#ffffff">1×</text>
</g>
<!-- (below main)&#45;&gt;main -->
<g id="edge1" class="edge">
<title>(below main)&#45;&gt;main</title>
<path fill="none" stroke="#ff0000" stroke-width="4" d="M129,-617.92C129,-608.61 129,-598.23 129,-588.36"/>
<polygon fill="#ff0000" stroke="#ff0000" stroke-width="4" points="132.5,-588.32 129,-578.32 125.5,-588.32 132.5,-588.32"/>
<text text-anchor="middle" x="146" y="-601" font-family="Arial" font-size="10.00" fill="#ff0000">99.99%</text>
<text text-anchor="middle" x="146" y="-590" font-family="Arial" font-size="10.00" fill="#ff0000">1×</text>
</g>
<!-- Matrix::hermite() -->
<g id="node9" class="node">
<title>Matrix::hermite()</title>
<polygon fill="#ff0000" stroke="#ff0000" points="180.5,-475 77.5,-475 77.5,-412 180.5,-412 180.5,-475"/>
<text text-anchor="middle" x="129" y="-463" font-family="Arial" font-size="10.00" fill="#ffffff">matrix_theory_gprof</text>
<text text-anchor="middle" x="129" y="-452" font-family="Arial" font-size="10.00" fill="#ffffff">Matrix::hermite()</text>
<text text-anchor="middle" x="129" y="-441" font-family="Arial" font-size="10.00" fill="#ffffff">99.97%</text>
<text text-anchor="middle" x="129" y="-430" font-family="Arial" font-size="10.00" fill="#ffffff">(0.01%)</text>
<text text-anchor="middle" x="129" y="-419" font-family="Arial" font-size="10.00" fill="#ffffff">9×</text>
</g>
<!-- main&#45;&gt;Matrix::hermite() -->
<g id="edge10" class="edge">
<title>main&#45;&gt;Matrix::hermite()</title>
<path fill="none" stroke="#ff0000" stroke-width="4" d="M129,-514.92C129,-505.61 129,-495.23 129,-485.36"/>
<polygon fill="#ff0000" stroke="#ff0000" stroke-width="4" points="132.5,-485.32 129,-475.32 125.5,-485.32 132.5,-485.32"/>
<text text-anchor="middle" x="146" y="-498" font-family="Arial" font-size="10.00" fill="#ff0000">99.97%</text>
<text text-anchor="middle" x="146" y="-487" font-family="Arial" font-size="10.00" fill="#ff0000">9×</text>
</g>
<!-- 0x0000000000001100 -->
<g id="node3" class="node">
<title>0x0000000000001100</title>
<polygon fill="#ff0000" stroke="#ff0000" points="184.5,-887 73.5,-887 73.5,-824 184.5,-824 184.5,-887"/>
<text text-anchor="middle" x="129" y="-875" font-family="Arial" font-size="10.00" fill="#ffffff">ld&#45;2.31.so</text>
<text text-anchor="middle" x="129" y="-864" font-family="Arial" font-size="10.00" fill="#ffffff">0x0000000000001100</text>
<text text-anchor="middle" x="129" y="-853" font-family="Arial" font-size="10.00" fill="#ffffff">100.00%</text>
<text text-anchor="middle" x="129" y="-842" font-family="Arial" font-size="10.00" fill="#ffffff">(0.00%)</text>
<text text-anchor="middle" x="129" y="-831" font-family="Arial" font-size="10.00" fill="#ffffff">0×</text>
</g>
<!-- _start -->
<g id="node4" class="node">
<title>_start</title>
<polygon fill="#ff0000" stroke="#ff0000" points="180.5,-784 77.5,-784 77.5,-721 180.5,-721 180.5,-784"/>
<text text-anchor="middle" x="129" y="-772" font-family="Arial" font-size="10.00" fill="#ffffff">matrix_theory_gprof</text>
<text text-anchor="middle" x="129" y="-761" font-family="Arial" font-size="10.00" fill="#ffffff">_start</text>
<text text-anchor="middle" x="129" y="-750" font-family="Arial" font-size="10.00" fill="#ffffff">99.99%</text>
<text text-anchor="middle" x="129" y="-739" font-family="Arial" font-size="10.00" fill="#ffffff">(0.00%)</text>
<text text-anchor="middle" x="129" y="-728" font-family="Arial" font-size="10.00" fill="#ffffff">1×</text>
</g>
<!-- 0x0000000000001100&#45;&gt;_start -->
<g id="edge2" class="edge">
<title>0x0000000000001100&#45;&gt;_start</title>
<path fill="none" stroke="#ff0000" stroke-width="4" d="M129,-823.92C129,-814.61 129,-804.23 129,-794.36"/>
<polygon fill="#ff0000" stroke="#ff0000" stroke-width="4" points="132.5,-794.32 129,-784.32 125.5,-794.32 132.5,-794.32"/>
<text text-anchor="middle" x="146" y="-807" font-family="Arial" font-size="10.00" fill="#ff0000">99.99%</text>
<text text-anchor="middle" x="146" y="-796" font-family="Arial" font-size="10.00" fill="#ff0000">1×</text>
</g>
<!-- _start&#45;&gt;(below main) -->
<g id="edge8" class="edge">
<title>_start&#45;&gt;(below main)</title>
<path fill="none" stroke="#ff0000" stroke-width="4" d="M129,-720.92C129,-711.61 129,-701.23 129,-691.36"/>
<polygon fill="#ff0000" stroke="#ff0000" stroke-width="4" points="132.5,-691.32 129,-681.32 125.5,-691.32 132.5,-691.32"/>
<text text-anchor="middle" x="146" y="-704" font-family="Arial" font-size="10.00" fill="#ff0000">99.99%</text>
<text text-anchor="middle" x="146" y="-693" font-family="Arial" font-size="10.00" fill="#ff0000">1×</text>
</g>
<!-- 0x0000000000109110 -->
<g id="node5" class="node">
<title>0x0000000000109110</title>
<polygon fill="#0d1575" stroke="#0d1575" points="125.5,-269 14.5,-269 14.5,-206 125.5,-206 125.5,-269"/>
<text text-anchor="middle" x="70" y="-257" font-family="Arial" font-size="10.00" fill="#ffffff">???</text>
<text text-anchor="middle" x="70" y="-246" font-family="Arial" font-size="10.00" fill="#ffffff">0x0000000000109110</text>
<text text-anchor="middle" x="70" y="-235" font-family="Arial" font-size="10.00" fill="#ffffff">2.00%</text>
<text text-anchor="middle" x="70" y="-224" font-family="Arial" font-size="10.00" fill="#ffffff">(0.03%)</text>
<text text-anchor="middle" x="70" y="-213" font-family="Arial" font-size="10.00" fill="#ffffff">2361069×</text>
</g>
<!-- free -->
<g id="node6" class="node">
<title>free</title>
<polygon fill="#0d1575" stroke="#0d1575" points="99.5,-166 40.5,-166 40.5,-103 99.5,-103 99.5,-166"/>
<text text-anchor="middle" x="70" y="-154" font-family="Arial" font-size="10.00" fill="#ffffff">ld&#45;2.31.so</text>
<text text-anchor="middle" x="70" y="-143" font-family="Arial" font-size="10.00" fill="#ffffff">free</text>
<text text-anchor="middle" x="70" y="-132" font-family="Arial" font-size="10.00" fill="#ffffff">1.98%</text>
<text text-anchor="middle" x="70" y="-121" font-family="Arial" font-size="10.00" fill="#ffffff">(0.27%)</text>
<text text-anchor="middle" x="70" y="-110" font-family="Arial" font-size="10.00" fill="#ffffff">2361078×</text>
</g>
<!-- 0x0000000000109110&#45;&gt;free -->
<g id="edge3" class="edge">
<title>0x0000000000109110&#45;&gt;free</title>
<path fill="none" stroke="#0d1575" stroke-width="0.5" d="M70,-205.92C70,-194.56 70,-181.59 70,-169.9"/>
<polygon fill="#0d1575" stroke="#0d1575" stroke-width="0.5" points="71.23,-169.82 70,-166.32 68.78,-169.82 71.23,-169.82"/>
<text text-anchor="middle" x="91.5" y="-189" font-family="Arial" font-size="10.00" fill="#0d1575">1.98%</text>
<text text-anchor="middle" x="91.5" y="-178" font-family="Arial" font-size="10.00" fill="#0d1575">2361069×</text>
</g>
<!-- _int_free -->
<g id="node11" class="node">
<title>_int_free</title>
<polygon fill="#0d1475" stroke="#0d1475" points="103.5,-63 36.5,-63 36.5,0 103.5,0 103.5,-63"/>
<text text-anchor="middle" x="70" y="-51" font-family="Arial" font-size="10.00" fill="#ffffff">libc&#45;2.31.so</text>
<text text-anchor="middle" x="70" y="-40" font-family="Arial" font-size="10.00" fill="#ffffff">_int_free</text>
<text text-anchor="middle" x="70" y="-29" font-family="Arial" font-size="10.00" fill="#ffffff">1.71%</text>
<text text-anchor="middle" x="70" y="-18" font-family="Arial" font-size="10.00" fill="#ffffff">(1.48%)</text>
<text text-anchor="middle" x="70" y="-7" font-family="Arial" font-size="10.00" fill="#ffffff">2361069×</text>
</g>
<!-- free&#45;&gt;_int_free -->
<g id="edge9" class="edge">
<title>free&#45;&gt;_int_free</title>
<path fill="none" stroke="#0d1475" stroke-width="0.5" d="M70,-102.92C70,-91.56 70,-78.59 70,-66.9"/>
<polygon fill="#0d1475" stroke="#0d1475" stroke-width="0.5" points="71.23,-66.82 70,-63.32 68.78,-66.82 71.23,-66.82"/>
<text text-anchor="middle" x="91.5" y="-86" font-family="Arial" font-size="10.00" fill="#0d1475">1.71%</text>
<text text-anchor="middle" x="91.5" y="-75" font-family="Arial" font-size="10.00" fill="#0d1475">2361069×</text>
</g>
<!-- 0x0000000000109120 -->
<g id="node7" class="node">
<title>0x0000000000109120</title>
<polygon fill="#0d1675" stroke="#0d1675" points="245.5,-269 134.5,-269 134.5,-206 245.5,-206 245.5,-269"/>
<text text-anchor="middle" x="190" y="-257" font-family="Arial" font-size="10.00" fill="#ffffff">???</text>
<text text-anchor="middle" x="190" y="-246" font-family="Arial" font-size="10.00" fill="#ffffff">0x0000000000109120</text>
<text text-anchor="middle" x="190" y="-235" font-family="Arial" font-size="10.00" fill="#ffffff">2.15%</text>
<text text-anchor="middle" x="190" y="-224" font-family="Arial" font-size="10.00" fill="#ffffff">(0.03%)</text>
<text text-anchor="middle" x="190" y="-213" font-family="Arial" font-size="10.00" fill="#ffffff">2361069×</text>
</g>
<!-- malloc -->
<g id="node8" class="node">
<title>malloc</title>
<polygon fill="#0d1675" stroke="#0d1675" points="219.5,-166 160.5,-166 160.5,-103 219.5,-103 219.5,-166"/>
<text text-anchor="middle" x="190" y="-154" font-family="Arial" font-size="10.00" fill="#ffffff">ld&#45;2.31.so</text>
<text text-anchor="middle" x="190" y="-143" font-family="Arial" font-size="10.00" fill="#ffffff">malloc</text>
<text text-anchor="middle" x="190" y="-132" font-family="Arial" font-size="10.00" fill="#ffffff">2.14%</text>
<text text-anchor="middle" x="190" y="-121" font-family="Arial" font-size="10.00" fill="#ffffff">(0.60%)</text>
<text text-anchor="middle" x="190" y="-110" font-family="Arial" font-size="10.00" fill="#ffffff">2361114×</text>
</g>
<!-- 0x0000000000109120&#45;&gt;malloc -->
<g id="edge4" class="edge">
<title>0x0000000000109120&#45;&gt;malloc</title>
<path fill="none" stroke="#0d1675" stroke-width="0.5" d="M190,-205.92C190,-194.56 190,-181.59 190,-169.9"/>
<polygon fill="#0d1675" stroke="#0d1675" stroke-width="0.5" points="191.23,-169.82 190,-166.32 188.78,-169.82 191.23,-169.82"/>
<text text-anchor="middle" x="211.5" y="-189" font-family="Arial" font-size="10.00" fill="#0d1675">2.13%</text>
<text text-anchor="middle" x="211.5" y="-178" font-family="Arial" font-size="10.00" fill="#0d1675">2361069×</text>
</g>
<!-- _int_malloc -->
<g id="node12" class="node">
<title>_int_malloc</title>
<polygon fill="#0d1375" stroke="#0d1375" points="223.5,-63 156.5,-63 156.5,0 223.5,0 223.5,-63"/>
<text text-anchor="middle" x="190" y="-51" font-family="Arial" font-size="10.00" fill="#ffffff">libc&#45;2.31.so</text>
<text text-anchor="middle" x="190" y="-40" font-family="Arial" font-size="10.00" fill="#ffffff">_int_malloc</text>
<text text-anchor="middle" x="190" y="-29" font-family="Arial" font-size="10.00" fill="#ffffff">1.52%</text>
<text text-anchor="middle" x="190" y="-18" font-family="Arial" font-size="10.00" fill="#ffffff">(1.52%)</text>
<text text-anchor="middle" x="190" y="-7" font-family="Arial" font-size="10.00" fill="#ffffff">2070735×</text>
</g>
<!-- malloc&#45;&gt;_int_malloc -->
<g id="edge11" class="edge">
<title>malloc&#45;&gt;_int_malloc</title>
<path fill="none" stroke="#0d1375" stroke-width="0.5" d="M190,-102.92C190,-91.56 190,-78.59 190,-66.9"/>
<polygon fill="#0d1375" stroke="#0d1375" stroke-width="0.5" points="191.23,-66.82 190,-63.32 188.78,-66.82 191.23,-66.82"/>
<text text-anchor="middle" x="211.5" y="-86" font-family="Arial" font-size="10.00" fill="#0d1375">1.52%</text>
<text text-anchor="middle" x="211.5" y="-75" font-family="Arial" font-size="10.00" fill="#0d1375">2070733×</text>
</g>
<!-- MxM(int**, int, int, int**, int, int, int) [clone .constprop.0] -->
<g id="node10" class="node">
<title>MxM(int**, int, int, int**, int, int, int) [clone .constprop.0]</title>
<polygon fill="#ff0100" stroke="#ff0100" points="258,-372 0,-372 0,-309 258,-309 258,-372"/>
<text text-anchor="middle" x="129" y="-360" font-family="Arial" font-size="10.00" fill="#ffffff">matrix_theory_gprof</text>
<text text-anchor="middle" x="129" y="-349" font-family="Arial" font-size="10.00" fill="#ffffff">MxM(int**, int, int, int**, int, int, int) [clone .constprop.0]</text>
<text text-anchor="middle" x="129" y="-338" font-family="Arial" font-size="10.00" fill="#ffffff">99.95%</text>
<text text-anchor="middle" x="129" y="-327" font-family="Arial" font-size="10.00" fill="#ffffff">(95.80%)</text>
<text text-anchor="middle" x="129" y="-316" font-family="Arial" font-size="10.00" fill="#ffffff">36288×</text>
</g>
<!-- Matrix::hermite()&#45;&gt;MxM(int**, int, int, int**, int, int, int) [clone .constprop.0] -->
<g id="edge5" class="edge">
<title>Matrix::hermite()&#45;&gt;MxM(int**, int, int, int**, int, int, int) [clone .constprop.0]</title>
<path fill="none" stroke="#ff0100" stroke-width="4" d="M129,-411.92C129,-402.61 129,-392.23 129,-382.36"/>
<polygon fill="#ff0100" stroke="#ff0100" stroke-width="4" points="132.5,-382.32 129,-372.32 125.5,-382.32 132.5,-382.32"/>
<text text-anchor="middle" x="146" y="-395" font-family="Arial" font-size="10.00" fill="#ff0100">99.95%</text>
<text text-anchor="middle" x="146" y="-384" font-family="Arial" font-size="10.00" fill="#ff0100">36288×</text>
</g>
<!-- MxM(int**, int, int, int**, int, int, int) [clone .constprop.0]&#45;&gt;0x0000000000109110 -->
<g id="edge6" class="edge">
<title>MxM(int**, int, int, int**, int, int, int) [clone .constprop.0]&#45;&gt;0x0000000000109110</title>
<path fill="none" stroke="#0d1575" stroke-width="0.5" d="M111.14,-308.92C104.44,-297.46 96.79,-284.36 89.92,-272.6"/>
<polygon fill="#0d1575" stroke="#0d1575" stroke-width="0.5" points="90.83,-271.73 88,-269.32 88.71,-272.96 90.83,-271.73"/>
<text text-anchor="middle" x="126.5" y="-292" font-family="Arial" font-size="10.00" fill="#0d1575">2.00%</text>
<text text-anchor="middle" x="126.5" y="-281" font-family="Arial" font-size="10.00" fill="#0d1575">2358720×</text>
</g>
<!-- MxM(int**, int, int, int**, int, int, int) [clone .constprop.0]&#45;&gt;0x0000000000109120 -->
<g id="edge7" class="edge">
<title>MxM(int**, int, int, int**, int, int, int) [clone .constprop.0]&#45;&gt;0x0000000000109120</title>
<path fill="none" stroke="#0d1675" stroke-width="0.5" d="M147.47,-308.92C154.39,-297.46 162.3,-284.36 169.4,-272.6"/>
<polygon fill="#0d1675" stroke="#0d1675" stroke-width="0.5" points="170.62,-272.95 171.38,-269.32 168.53,-271.68 170.62,-272.95"/>
<text text-anchor="middle" x="185.5" y="-292" font-family="Arial" font-size="10.00" fill="#0d1675">2.15%</text>
<text text-anchor="middle" x="185.5" y="-281" font-family="Arial" font-size="10.00" fill="#0d1675">2358720×</text>
</g>
</g>
</svg>
