<?xml version="1.0" encoding="UTF-8" standalone="no"?>
<!DOCTYPE svg PUBLIC "-//W3C//DTD SVG 1.1//EN"
 "http://www.w3.org/Graphics/SVG/1.1/DTD/svg11.dtd">
<!-- Generated by graphviz version 2.43.0 (0)
 -->
<!-- Title: %3 Pages: 1 -->
<svg width="897pt" height="895pt"
 viewBox="0.00 0.00 897.00 895.00" xmlns="http://www.w3.org/2000/svg" xmlns:xlink="http://www.w3.org/1999/xlink">
<g id="graph0" class="graph" transform="scale(1 1) rotate(0) translate(4 891)">
<title>%3</title>
<polygon fill="white" stroke="transparent" points="-4,4 -4,-891 893,-891 893,4 -4,4"/>
<!-- (below main) -->
<g id="node1" class="node">
<title>(below main)</title>
<polygon fill="#ff0200" stroke="#ff0200" points="535.5,-681 463.5,-681 463.5,-618 535.5,-618 535.5,-681"/>
<text text-anchor="middle" x="499.5" y="-669" font-family="Arial" font-size="10.00" fill="#ffffff">libc&#45;2.31.so</text>
<text text-anchor="middle" x="499.5" y="-658" font-family="Arial" font-size="10.00" fill="#ffffff">(below main)</text>
<text text-anchor="middle" x="499.5" y="-647" font-family="Arial" font-size="10.00" fill="#ffffff">99.83%</text>
<text text-anchor="middle" x="499.5" y="-636" font-family="Arial" font-size="10.00" fill="#ffffff">(0.00%)</text>
<text text-anchor="middle" x="499.5" y="-625" font-family="Arial" font-size="10.00" fill="#ffffff">1×</text>
</g>
<!-- main -->
<g id="node2" class="node">
<title>main</title>
<polygon fill="#ff0200" stroke="#ff0200" points="551,-578 448,-578 448,-515 551,-515 551,-578"/>
<text text-anchor="middle" x="499.5" y="-566" font-family="Arial" font-size="10.00" fill="#ffffff">matrix_theory_gprof</text>
<text text-anchor="middle" x="499.5" y="-555" font-family="Arial" font-size="10.00" fill="#ffffff">main</text>
<text text-anchor="middle" x="499.5" y="-544" font-family="Arial" font-size="10.00" fill="#ffffff">99.82%</text>
<text text-anchor="middle" x="499.5" y="-533" font-family="Arial" font-size="10.00" fill="#ffffff">(0.00%)</text>
<text text-anchor="middle" x="499.5" y="-522" font-family="Arial" font-size="10.00" fill="#ffffff">1×</text>
</g>
<!-- (below main)&#45;&gt;main -->
<g id="edge1" class="edge">
<title>(below main)&#45;&gt;main</title>
<path fill="none" stroke="#ff0200" stroke-width="3.99" d="M499.5,-617.92C499.5,-608.61 499.5,-598.23 499.5,-588.36"/>
<polygon fill="#ff0200" stroke="#ff0200" stroke-width="3.99" points="503,-588.32 499.5,-578.32 496,-588.32 503,-588.32"/>
<text text-anchor="middle" x="516.5" y="-601" font-family="Arial" font-size="10.00" fill="#ff0200">99.82%</text>
<text text-anchor="middle" x="516.5" y="-590" font-family="Arial" font-size="10.00" fill="#ff0200">1×</text>
</g>
<!-- Matrix::Matrix(int, int) [clone .constprop.0] -->
<g id="node14" class="node">
<title>Matrix::Matrix(int, int) [clone .constprop.0]</title>
<polygon fill="#0c968a" stroke="#0c968a" points="275,-475 76,-475 76,-412 275,-412 275,-475"/>
<text text-anchor="middle" x="175.5" y="-463" font-family="Arial" font-size="10.00" fill="#ffffff">matrix_theory_gprof</text>
<text text-anchor="middle" x="175.5" y="-452" font-family="Arial" font-size="10.00" fill="#ffffff">Matrix::Matrix(int, int) [clone .constprop.0]</text>
<text text-anchor="middle" x="175.5" y="-441" font-family="Arial" font-size="10.00" fill="#ffffff">27.29%</text>
<text text-anchor="middle" x="175.5" y="-430" font-family="Arial" font-size="10.00" fill="#ffffff">(5.15%)</text>
<text text-anchor="middle" x="175.5" y="-419" font-family="Arial" font-size="10.00" fill="#ffffff">999×</text>
</g>
<!-- main&#45;&gt;Matrix::Matrix(int, int) [clone .constprop.0] -->
<g id="edge17" class="edge">
<title>main&#45;&gt;Matrix::Matrix(int, int) [clone .constprop.0]</title>
<path fill="none" stroke="#0c968a" stroke-width="1.09" d="M447.8,-529.38C402.37,-515.22 334.88,-494.18 278.46,-476.6"/>
<polygon fill="#0c968a" stroke="#0c968a" stroke-width="1.09" points="278.89,-474.82 273.39,-475.01 277.81,-478.3 278.89,-474.82"/>
<text text-anchor="middle" x="384.5" y="-498" font-family="Arial" font-size="10.00" fill="#0c968a">27.29%</text>
<text text-anchor="middle" x="384.5" y="-487" font-family="Arial" font-size="10.00" fill="#0c968a">999×</text>
</g>
<!-- Matrix::hermite() -->
<g id="node15" class="node">
<title>Matrix::hermite()</title>
<polygon fill="#a5d207" stroke="#a5d207" points="551,-475 448,-475 448,-412 551,-412 551,-475"/>
<text text-anchor="middle" x="499.5" y="-463" font-family="Arial" font-size="10.00" fill="#ffffff">matrix_theory_gprof</text>
<text text-anchor="middle" x="499.5" y="-452" font-family="Arial" font-size="10.00" fill="#ffffff">Matrix::hermite()</text>
<text text-anchor="middle" x="499.5" y="-441" font-family="Arial" font-size="10.00" fill="#ffffff">69.50%</text>
<text text-anchor="middle" x="499.5" y="-430" font-family="Arial" font-size="10.00" fill="#ffffff">(10.53%)</text>
<text text-anchor="middle" x="499.5" y="-419" font-family="Arial" font-size="10.00" fill="#ffffff">999×</text>
</g>
<!-- main&#45;&gt;Matrix::hermite() -->
<g id="edge18" class="edge">
<title>main&#45;&gt;Matrix::hermite()</title>
<path fill="none" stroke="#a5d207" stroke-width="2.78" d="M499.5,-514.92C499.5,-505.12 499.5,-494.14 499.5,-483.8"/>
<polygon fill="#a5d207" stroke="#a5d207" stroke-width="2.78" points="502.41,-483.62 499.5,-475.32 496.6,-483.62 502.41,-483.62"/>
<text text-anchor="middle" x="516.5" y="-498" font-family="Arial" font-size="10.00" fill="#a5d207">69.50%</text>
<text text-anchor="middle" x="516.5" y="-487" font-family="Arial" font-size="10.00" fill="#a5d207">999×</text>
</g>
<!-- Matrix::~Matrix() -->
<g id="node18" class="node">
<title>Matrix::~Matrix()</title>
<polygon fill="#0d1a77" stroke="#0d1a77" points="755,-475 652,-475 652,-412 755,-412 755,-475"/>
<text text-anchor="middle" x="703.5" y="-463" font-family="Arial" font-size="10.00" fill="#ffffff">matrix_theory_gprof</text>
<text text-anchor="middle" x="703.5" y="-452" font-family="Arial" font-size="10.00" fill="#ffffff">Matrix::~Matrix()</text>
<text text-anchor="middle" x="703.5" y="-441" font-family="Arial" font-size="10.00" fill="#ffffff">3.02%</text>
<text text-anchor="middle" x="703.5" y="-430" font-family="Arial" font-size="10.00" fill="#ffffff">(0.07%)</text>
<text text-anchor="middle" x="703.5" y="-419" font-family="Arial" font-size="10.00" fill="#ffffff">999×</text>
</g>
<!-- main&#45;&gt;Matrix::~Matrix() -->
<g id="edge19" class="edge">
<title>main&#45;&gt;Matrix::~Matrix()</title>
<path fill="none" stroke="#0d1a77" stroke-width="0.5" d="M551.24,-519.88C580.97,-505.17 618.28,-486.69 648.54,-471.71"/>
<polygon fill="#0d1a77" stroke="#0d1a77" stroke-width="0.5" points="649.22,-472.74 651.81,-470.09 648.13,-470.54 649.22,-472.74"/>
<text text-anchor="middle" x="634.5" y="-498" font-family="Arial" font-size="10.00" fill="#0d1a77">3.02%</text>
<text text-anchor="middle" x="634.5" y="-487" font-family="Arial" font-size="10.00" fill="#0d1a77">999×</text>
</g>
<!-- 0x0000000000001100 -->
<g id="node3" class="node">
<title>0x0000000000001100</title>
<polygon fill="#ff0000" stroke="#ff0000" points="555,-887 444,-887 444,-824 555,-824 555,-887"/>
<text text-anchor="middle" x="499.5" y="-875" font-family="Arial" font-size="10.00" fill="#ffffff">ld&#45;2.31.so</text>
<text text-anchor="middle" x="499.5" y="-864" font-family="Arial" font-size="10.00" fill="#ffffff">0x0000000000001100</text>
<text text-anchor="middle" x="499.5" y="-853" font-family="Arial" font-size="10.00" fill="#ffffff">99.99%</text>
<text text-anchor="middle" x="499.5" y="-842" font-family="Arial" font-size="10.00" fill="#ffffff">(0.00%)</text>
<text text-anchor="middle" x="499.5" y="-831" font-family="Arial" font-size="10.00" fill="#ffffff">0×</text>
</g>
<!-- _start -->
<g id="node4" class="node">
<title>_start</title>
<polygon fill="#ff0200" stroke="#ff0200" points="551,-784 448,-784 448,-721 551,-721 551,-784"/>
<text text-anchor="middle" x="499.5" y="-772" font-family="Arial" font-size="10.00" fill="#ffffff">matrix_theory_gprof</text>
<text text-anchor="middle" x="499.5" y="-761" font-family="Arial" font-size="10.00" fill="#ffffff">_start</text>
<text text-anchor="middle" x="499.5" y="-750" font-family="Arial" font-size="10.00" fill="#ffffff">99.83%</text>
<text text-anchor="middle" x="499.5" y="-739" font-family="Arial" font-size="10.00" fill="#ffffff">(0.00%)</text>
<text text-anchor="middle" x="499.5" y="-728" font-family="Arial" font-size="10.00" fill="#ffffff">1×</text>
</g>
<!-- 0x0000000000001100&#45;&gt;_start -->
<g id="edge2" class="edge">
<title>0x0000000000001100&#45;&gt;_start</title>
<path fill="none" stroke="#ff0200" stroke-width="3.99" d="M499.5,-823.92C499.5,-814.61 499.5,-804.23 499.5,-794.36"/>
<polygon fill="#ff0200" stroke="#ff0200" stroke-width="3.99" points="503,-794.32 499.5,-784.32 496,-794.32 503,-794.32"/>
<text text-anchor="middle" x="516.5" y="-807" font-family="Arial" font-size="10.00" fill="#ff0200">99.83%</text>
<text text-anchor="middle" x="516.5" y="-796" font-family="Arial" font-size="10.00" fill="#ff0200">1×</text>
</g>
<!-- _start&#45;&gt;(below main) -->
<g id="edge15" class="edge">
<title>_start&#45;&gt;(below main)</title>
<path fill="none" stroke="#ff0200" stroke-width="3.99" d="M499.5,-720.92C499.5,-711.61 499.5,-701.23 499.5,-691.36"/>
<polygon fill="#ff0200" stroke="#ff0200" stroke-width="3.99" points="503,-691.32 499.5,-681.32 496,-691.32 503,-691.32"/>
<text text-anchor="middle" x="516.5" y="-704" font-family="Arial" font-size="10.00" fill="#ff0200">99.83%</text>
<text text-anchor="middle" x="516.5" y="-693" font-family="Arial" font-size="10.00" fill="#ff0200">1×</text>
</g>
<!-- 0x00000000001090d0 -->
<g id="node5" class="node">
<title>0x00000000001090d0</title>
<polygon fill="#0c688a" stroke="#0c688a" points="111,-372 0,-372 0,-309 111,-309 111,-372"/>
<text text-anchor="middle" x="55.5" y="-360" font-family="Arial" font-size="10.00" fill="#ffffff">???</text>
<text text-anchor="middle" x="55.5" y="-349" font-family="Arial" font-size="10.00" fill="#ffffff">0x00000000001090d0</text>
<text text-anchor="middle" x="55.5" y="-338" font-family="Arial" font-size="10.00" fill="#ffffff">18.20%</text>
<text text-anchor="middle" x="55.5" y="-327" font-family="Arial" font-size="10.00" fill="#ffffff">(0.59%)</text>
<text text-anchor="middle" x="55.5" y="-316" font-family="Arial" font-size="10.00" fill="#ffffff">4091904×</text>
</g>
<!-- rand -->
<g id="node6" class="node">
<title>rand</title>
<polygon fill="#0c658a" stroke="#0c658a" points="89,-269 22,-269 22,-206 89,-206 89,-269"/>
<text text-anchor="middle" x="55.5" y="-257" font-family="Arial" font-size="10.00" fill="#ffffff">libc&#45;2.31.so</text>
<text text-anchor="middle" x="55.5" y="-246" font-family="Arial" font-size="10.00" fill="#ffffff">rand</text>
<text text-anchor="middle" x="55.5" y="-235" font-family="Arial" font-size="10.00" fill="#ffffff">17.61%</text>
<text text-anchor="middle" x="55.5" y="-224" font-family="Arial" font-size="10.00" fill="#ffffff">(1.47%)</text>
<text text-anchor="middle" x="55.5" y="-213" font-family="Arial" font-size="10.00" fill="#ffffff">4091904×</text>
</g>
<!-- 0x00000000001090d0&#45;&gt;rand -->
<g id="edge3" class="edge">
<title>0x00000000001090d0&#45;&gt;rand</title>
<path fill="none" stroke="#0c658a" stroke-width="0.7" d="M55.5,-308.92C55.5,-297.85 55.5,-285.26 55.5,-273.81"/>
<polygon fill="#0c658a" stroke="#0c658a" stroke-width="0.7" points="56.97,-273.52 55.5,-269.32 54.03,-273.52 56.97,-273.52"/>
<text text-anchor="middle" x="77" y="-292" font-family="Arial" font-size="10.00" fill="#0c658a">17.61%</text>
<text text-anchor="middle" x="77" y="-281" font-family="Arial" font-size="10.00" fill="#0c658a">4091904×</text>
</g>
<!-- random -->
<g id="node21" class="node">
<title>random</title>
<polygon fill="#0c5c88" stroke="#0c5c88" points="89,-166 22,-166 22,-103 89,-103 89,-166"/>
<text text-anchor="middle" x="55.5" y="-154" font-family="Arial" font-size="10.00" fill="#ffffff">libc&#45;2.31.so</text>
<text text-anchor="middle" x="55.5" y="-143" font-family="Arial" font-size="10.00" fill="#ffffff">random</text>
<text text-anchor="middle" x="55.5" y="-132" font-family="Arial" font-size="10.00" fill="#ffffff">16.14%</text>
<text text-anchor="middle" x="55.5" y="-121" font-family="Arial" font-size="10.00" fill="#ffffff">(6.77%)</text>
<text text-anchor="middle" x="55.5" y="-110" font-family="Arial" font-size="10.00" fill="#ffffff">4091904×</text>
</g>
<!-- rand&#45;&gt;random -->
<g id="edge21" class="edge">
<title>rand&#45;&gt;random</title>
<path fill="none" stroke="#0c5c88" stroke-width="0.65" d="M55.5,-205.92C55.5,-194.75 55.5,-182.04 55.5,-170.51"/>
<polygon fill="#0c5c88" stroke="#0c5c88" stroke-width="0.65" points="56.9,-170.32 55.5,-166.32 54.1,-170.32 56.9,-170.32"/>
<text text-anchor="middle" x="77" y="-189" font-family="Arial" font-size="10.00" fill="#0c5c88">16.14%</text>
<text text-anchor="middle" x="77" y="-178" font-family="Arial" font-size="10.00" fill="#0c5c88">4091904×</text>
</g>
<!-- 0x0000000000109110 -->
<g id="node7" class="node">
<title>0x0000000000109110</title>
<polygon fill="#0d1977" stroke="#0d1977" points="889,-372 778,-372 778,-309 889,-309 889,-372"/>
<text text-anchor="middle" x="833.5" y="-360" font-family="Arial" font-size="10.00" fill="#ffffff">???</text>
<text text-anchor="middle" x="833.5" y="-349" font-family="Arial" font-size="10.00" fill="#ffffff">0x0000000000109110</text>
<text text-anchor="middle" x="833.5" y="-338" font-family="Arial" font-size="10.00" fill="#ffffff">2.96%</text>
<text text-anchor="middle" x="833.5" y="-327" font-family="Arial" font-size="10.00" fill="#ffffff">(0.04%)</text>
<text text-anchor="middle" x="833.5" y="-316" font-family="Arial" font-size="10.00" fill="#ffffff">260739×</text>
</g>
<!-- free -->
<g id="node8" class="node">
<title>free</title>
<polygon fill="#0d1976" stroke="#0d1976" points="863,-269 804,-269 804,-206 863,-206 863,-269"/>
<text text-anchor="middle" x="833.5" y="-257" font-family="Arial" font-size="10.00" fill="#ffffff">ld&#45;2.31.so</text>
<text text-anchor="middle" x="833.5" y="-246" font-family="Arial" font-size="10.00" fill="#ffffff">free</text>
<text text-anchor="middle" x="833.5" y="-235" font-family="Arial" font-size="10.00" fill="#ffffff">2.92%</text>
<text text-anchor="middle" x="833.5" y="-224" font-family="Arial" font-size="10.00" fill="#ffffff">(0.39%)</text>
<text text-anchor="middle" x="833.5" y="-213" font-family="Arial" font-size="10.00" fill="#ffffff">260748×</text>
</g>
<!-- 0x0000000000109110&#45;&gt;free -->
<g id="edge4" class="edge">
<title>0x0000000000109110&#45;&gt;free</title>
<path fill="none" stroke="#0d1976" stroke-width="0.5" d="M833.5,-308.92C833.5,-297.56 833.5,-284.59 833.5,-272.9"/>
<polygon fill="#0d1976" stroke="#0d1976" stroke-width="0.5" points="834.73,-272.82 833.5,-269.32 832.28,-272.82 834.73,-272.82"/>
<text text-anchor="middle" x="852.5" y="-292" font-family="Arial" font-size="10.00" fill="#0d1976">2.92%</text>
<text text-anchor="middle" x="852.5" y="-281" font-family="Arial" font-size="10.00" fill="#0d1976">260739×</text>
</g>
<!-- _int_free -->
<g id="node19" class="node">
<title>_int_free</title>
<polygon fill="#0d1776" stroke="#0d1776" points="867,-166 800,-166 800,-103 867,-103 867,-166"/>
<text text-anchor="middle" x="833.5" y="-154" font-family="Arial" font-size="10.00" fill="#ffffff">libc&#45;2.31.so</text>
<text text-anchor="middle" x="833.5" y="-143" font-family="Arial" font-size="10.00" fill="#ffffff">_int_free</text>
<text text-anchor="middle" x="833.5" y="-132" font-family="Arial" font-size="10.00" fill="#ffffff">2.52%</text>
<text text-anchor="middle" x="833.5" y="-121" font-family="Arial" font-size="10.00" fill="#ffffff">(2.19%)</text>
<text text-anchor="middle" x="833.5" y="-110" font-family="Arial" font-size="10.00" fill="#ffffff">260739×</text>
</g>
<!-- free&#45;&gt;_int_free -->
<g id="edge16" class="edge">
<title>free&#45;&gt;_int_free</title>
<path fill="none" stroke="#0d1776" stroke-width="0.5" d="M833.5,-205.92C833.5,-194.56 833.5,-181.59 833.5,-169.9"/>
<polygon fill="#0d1776" stroke="#0d1776" stroke-width="0.5" points="834.73,-169.82 833.5,-166.32 832.28,-169.82 834.73,-169.82"/>
<text text-anchor="middle" x="852.5" y="-189" font-family="Arial" font-size="10.00" fill="#0d1776">2.52%</text>
<text text-anchor="middle" x="852.5" y="-178" font-family="Arial" font-size="10.00" fill="#0d1776">260739×</text>
</g>
<!-- 0x0000000000109120 -->
<g id="node9" class="node">
<title>0x0000000000109120</title>
<polygon fill="#0d1d78" stroke="#0d1d78" points="231,-372 120,-372 120,-309 231,-309 231,-372"/>
<text text-anchor="middle" x="175.5" y="-360" font-family="Arial" font-size="10.00" fill="#ffffff">???</text>
<text text-anchor="middle" x="175.5" y="-349" font-family="Arial" font-size="10.00" fill="#ffffff">0x0000000000109120</text>
<text text-anchor="middle" x="175.5" y="-338" font-family="Arial" font-size="10.00" fill="#ffffff">3.77%</text>
<text text-anchor="middle" x="175.5" y="-327" font-family="Arial" font-size="10.00" fill="#ffffff">(0.04%)</text>
<text text-anchor="middle" x="175.5" y="-316" font-family="Arial" font-size="10.00" fill="#ffffff">260739×</text>
</g>
<!-- malloc -->
<g id="node10" class="node">
<title>malloc</title>
<polygon fill="#0d1d78" stroke="#0d1d78" points="205,-269 146,-269 146,-206 205,-206 205,-269"/>
<text text-anchor="middle" x="175.5" y="-257" font-family="Arial" font-size="10.00" fill="#ffffff">ld&#45;2.31.so</text>
<text text-anchor="middle" x="175.5" y="-246" font-family="Arial" font-size="10.00" fill="#ffffff">malloc</text>
<text text-anchor="middle" x="175.5" y="-235" font-family="Arial" font-size="10.00" fill="#ffffff">3.88%</text>
<text text-anchor="middle" x="175.5" y="-224" font-family="Arial" font-size="10.00" fill="#ffffff">(0.89%)</text>
<text text-anchor="middle" x="175.5" y="-213" font-family="Arial" font-size="10.00" fill="#ffffff">260784×</text>
</g>
<!-- 0x0000000000109120&#45;&gt;malloc -->
<g id="edge5" class="edge">
<title>0x0000000000109120&#45;&gt;malloc</title>
<path fill="none" stroke="#0d1d78" stroke-width="0.5" d="M175.5,-308.92C175.5,-297.56 175.5,-284.59 175.5,-272.9"/>
<polygon fill="#0d1d78" stroke="#0d1d78" stroke-width="0.5" points="176.73,-272.82 175.5,-269.32 174.28,-272.82 176.73,-272.82"/>
<text text-anchor="middle" x="194.5" y="-292" font-family="Arial" font-size="10.00" fill="#0d1d78">3.74%</text>
<text text-anchor="middle" x="194.5" y="-281" font-family="Arial" font-size="10.00" fill="#0d1d78">260739×</text>
</g>
<!-- _int_malloc -->
<g id="node20" class="node">
<title>_int_malloc</title>
<polygon fill="#0d1976" stroke="#0d1976" points="209,-166 142,-166 142,-103 209,-103 209,-166"/>
<text text-anchor="middle" x="175.5" y="-154" font-family="Arial" font-size="10.00" fill="#ffffff">libc&#45;2.31.so</text>
<text text-anchor="middle" x="175.5" y="-143" font-family="Arial" font-size="10.00" fill="#ffffff">_int_malloc</text>
<text text-anchor="middle" x="175.5" y="-132" font-family="Arial" font-size="10.00" fill="#ffffff">2.85%</text>
<text text-anchor="middle" x="175.5" y="-121" font-family="Arial" font-size="10.00" fill="#ffffff">(2.84%)</text>
<text text-anchor="middle" x="175.5" y="-110" font-family="Arial" font-size="10.00" fill="#ffffff">248637×</text>
</g>
<!-- malloc&#45;&gt;_int_malloc -->
<g id="edge20" class="edge">
<title>malloc&#45;&gt;_int_malloc</title>
<path fill="none" stroke="#0d1976" stroke-width="0.5" d="M175.5,-205.92C175.5,-194.56 175.5,-181.59 175.5,-169.9"/>
<polygon fill="#0d1976" stroke="#0d1976" stroke-width="0.5" points="176.73,-169.82 175.5,-166.32 174.28,-169.82 176.73,-169.82"/>
<text text-anchor="middle" x="194.5" y="-189" font-family="Arial" font-size="10.00" fill="#0d1976">2.85%</text>
<text text-anchor="middle" x="194.5" y="-178" font-family="Arial" font-size="10.00" fill="#0d1976">248635×</text>
</g>
<!-- DioSolv(int, int, int, int*) -->
<g id="node11" class="node">
<title>DioSolv(int, int, int, int*)</title>
<polygon fill="#0d4181" stroke="#0d4181" points="361,-372 240,-372 240,-309 361,-309 361,-372"/>
<text text-anchor="middle" x="300.5" y="-360" font-family="Arial" font-size="10.00" fill="#ffffff">matrix_theory_gprof</text>
<text text-anchor="middle" x="300.5" y="-349" font-family="Arial" font-size="10.00" fill="#ffffff">DioSolv(int, int, int, int*)</text>
<text text-anchor="middle" x="300.5" y="-338" font-family="Arial" font-size="10.00" fill="#ffffff">11.32%</text>
<text text-anchor="middle" x="300.5" y="-327" font-family="Arial" font-size="10.00" fill="#ffffff">(3.46%)</text>
<text text-anchor="middle" x="300.5" y="-316" font-family="Arial" font-size="10.00" fill="#ffffff">2006002×</text>
</g>
<!-- DioSolvRec(int, int, int&amp;, int&amp;) -->
<g id="node12" class="node">
<title>DioSolvRec(int, int, int&amp;, int&amp;)</title>
<polygon fill="#0d307d" stroke="#0d307d" points="375,-269 226,-269 226,-206 375,-206 375,-269"/>
<text text-anchor="middle" x="300.5" y="-257" font-family="Arial" font-size="10.00" fill="#ffffff">matrix_theory_gprof</text>
<text text-anchor="middle" x="300.5" y="-246" font-family="Arial" font-size="10.00" fill="#ffffff">DioSolvRec(int, int, int&amp;, int&amp;)</text>
<text text-anchor="middle" x="300.5" y="-235" font-family="Arial" font-size="10.00" fill="#ffffff">7.86%</text>
<text text-anchor="middle" x="300.5" y="-224" font-family="Arial" font-size="10.00" fill="#ffffff">(3.75%)</text>
<text text-anchor="middle" x="300.5" y="-213" font-family="Arial" font-size="10.00" fill="#ffffff">2006002×</text>
</g>
<!-- DioSolv(int, int, int, int*)&#45;&gt;DioSolvRec(int, int, int&amp;, int&amp;) -->
<g id="edge6" class="edge">
<title>DioSolv(int, int, int, int*)&#45;&gt;DioSolvRec(int, int, int&amp;, int&amp;)</title>
<path fill="none" stroke="#0d307d" stroke-width="0.5" d="M300.5,-308.92C300.5,-297.56 300.5,-284.59 300.5,-272.9"/>
<polygon fill="#0d307d" stroke="#0d307d" stroke-width="0.5" points="301.73,-272.82 300.5,-269.32 299.28,-272.82 301.73,-272.82"/>
<text text-anchor="middle" x="322" y="-292" font-family="Arial" font-size="10.00" fill="#0d307d">7.86%</text>
<text text-anchor="middle" x="322" y="-281" font-family="Arial" font-size="10.00" fill="#0d307d">2006002×</text>
</g>
<!-- DioSolvRec(int, int, int&amp;, int&amp;)&#39;2 -->
<g id="node13" class="node">
<title>DioSolvRec(int, int, int&amp;, int&amp;)&#39;2</title>
<polygon fill="#0d1e78" stroke="#0d1e78" points="378.5,-166 222.5,-166 222.5,-103 378.5,-103 378.5,-166"/>
<text text-anchor="middle" x="300.5" y="-154" font-family="Arial" font-size="10.00" fill="#ffffff">matrix_theory_gprof</text>
<text text-anchor="middle" x="300.5" y="-143" font-family="Arial" font-size="10.00" fill="#ffffff">DioSolvRec(int, int, int&amp;, int&amp;)&#39;2</text>
<text text-anchor="middle" x="300.5" y="-132" font-family="Arial" font-size="10.00" fill="#ffffff">4.11%</text>
<text text-anchor="middle" x="300.5" y="-121" font-family="Arial" font-size="10.00" fill="#ffffff">(4.11%)</text>
<text text-anchor="middle" x="300.5" y="-110" font-family="Arial" font-size="10.00" fill="#ffffff">3049326×</text>
</g>
<!-- DioSolvRec(int, int, int&amp;, int&amp;)&#45;&gt;DioSolvRec(int, int, int&amp;, int&amp;)&#39;2 -->
<g id="edge7" class="edge">
<title>DioSolvRec(int, int, int&amp;, int&amp;)&#45;&gt;DioSolvRec(int, int, int&amp;, int&amp;)&#39;2</title>
<path fill="none" stroke="#0d1e78" stroke-width="0.5" d="M300.5,-205.92C300.5,-194.56 300.5,-181.59 300.5,-169.9"/>
<polygon fill="#0d1e78" stroke="#0d1e78" stroke-width="0.5" points="301.73,-169.82 300.5,-166.32 299.28,-169.82 301.73,-169.82"/>
<text text-anchor="middle" x="322" y="-189" font-family="Arial" font-size="10.00" fill="#0d1e78">4.11%</text>
<text text-anchor="middle" x="322" y="-178" font-family="Arial" font-size="10.00" fill="#0d1e78">2006002×</text>
</g>
<!-- DioSolvRec(int, int, int&amp;, int&amp;)&#39;2&#45;&gt;DioSolvRec(int, int, int&amp;, int&amp;)&#39;2 -->
<g id="edge8" class="edge">
<title>DioSolvRec(int, int, int&amp;, int&amp;)&#39;2&#45;&gt;DioSolvRec(int, int, int&amp;, int&amp;)&#39;2</title>
<path fill="none" stroke="#0d1e78" stroke-width="0.5" d="M378.53,-141.38C384.1,-139.82 387.5,-137.53 387.5,-134.5 387.5,-132.13 385.42,-130.22 381.86,-128.75"/>
<polygon fill="#0d1e78" stroke="#0d1e78" stroke-width="0.5" points="382.24,-127.58 378.53,-127.62 381.45,-129.9 382.24,-127.58"/>
<text text-anchor="middle" x="409" y="-132" font-family="Arial" font-size="10.00" fill="#0d1e78">1043324×</text>
</g>
<!-- Matrix::Matrix(int, int) [clone .constprop.0]&#45;&gt;0x00000000001090d0 -->
<g id="edge9" class="edge">
<title>Matrix::Matrix(int, int) [clone .constprop.0]&#45;&gt;0x00000000001090d0</title>
<path fill="none" stroke="#0c688a" stroke-width="0.73" d="M139.17,-411.92C125.43,-400.36 109.73,-387.14 95.66,-375.3"/>
<polygon fill="#0c688a" stroke="#0c688a" stroke-width="0.73" points="96.38,-373.94 92.12,-372.32 94.44,-376.24 96.38,-373.94"/>
<text text-anchor="middle" x="148" y="-395" font-family="Arial" font-size="10.00" fill="#0c688a">18.20%</text>
<text text-anchor="middle" x="148" y="-384" font-family="Arial" font-size="10.00" fill="#0c688a">4091904×</text>
</g>
<!-- Matrix::Matrix(int, int) [clone .constprop.0]&#45;&gt;0x0000000000109120 -->
<g id="edge10" class="edge">
<title>Matrix::Matrix(int, int) [clone .constprop.0]&#45;&gt;0x0000000000109120</title>
<path fill="none" stroke="#0d1d78" stroke-width="0.5" d="M175.5,-411.92C175.5,-400.56 175.5,-387.59 175.5,-375.9"/>
<polygon fill="#0d1d78" stroke="#0d1d78" stroke-width="0.5" points="176.73,-375.82 175.5,-372.32 174.28,-375.82 176.73,-375.82"/>
<text text-anchor="middle" x="194.5" y="-395" font-family="Arial" font-size="10.00" fill="#0d1d78">3.77%</text>
<text text-anchor="middle" x="194.5" y="-384" font-family="Arial" font-size="10.00" fill="#0d1d78">259740×</text>
</g>
<!-- Matrix::hermite()&#45;&gt;DioSolv(int, int, int, int*) -->
<g id="edge11" class="edge">
<title>Matrix::hermite()&#45;&gt;DioSolv(int, int, int, int*)</title>
<path fill="none" stroke="#0d4181" stroke-width="0.5" d="M447.99,-416.36C422.32,-403.33 391.04,-387.45 363.9,-373.68"/>
<polygon fill="#0d4181" stroke="#0d4181" stroke-width="0.5" points="364.29,-372.5 360.62,-372.01 363.18,-374.69 364.29,-372.5"/>
<text text-anchor="middle" x="440" y="-395" font-family="Arial" font-size="10.00" fill="#0d4181">11.32%</text>
<text text-anchor="middle" x="440" y="-384" font-family="Arial" font-size="10.00" fill="#0d4181">2006002×</text>
</g>
<!-- MxM(int**, int, int, int**, int, int, int) [clone .constprop.0] -->
<g id="node16" class="node">
<title>MxM(int**, int, int, int**, int, int, int) [clone .constprop.0]</title>
<polygon fill="#0aaf2a" stroke="#0aaf2a" points="628.5,-372 370.5,-372 370.5,-309 628.5,-309 628.5,-372"/>
<text text-anchor="middle" x="499.5" y="-360" font-family="Arial" font-size="10.00" fill="#ffffff">matrix_theory_gprof</text>
<text text-anchor="middle" x="499.5" y="-349" font-family="Arial" font-size="10.00" fill="#ffffff">MxM(int**, int, int, int**, int, int, int) [clone .constprop.0]</text>
<text text-anchor="middle" x="499.5" y="-338" font-family="Arial" font-size="10.00" fill="#ffffff">45.17%</text>
<text text-anchor="middle" x="499.5" y="-327" font-family="Arial" font-size="10.00" fill="#ffffff">(45.17%)</text>
<text text-anchor="middle" x="499.5" y="-316" font-family="Arial" font-size="10.00" fill="#ffffff">4027968×</text>
</g>
<!-- Matrix::hermite()&#45;&gt;MxM(int**, int, int, int**, int, int, int) [clone .constprop.0] -->
<g id="edge12" class="edge">
<title>Matrix::hermite()&#45;&gt;MxM(int**, int, int, int**, int, int, int) [clone .constprop.0]</title>
<path fill="none" stroke="#0aaf2a" stroke-width="1.81" d="M499.5,-411.92C499.5,-401.64 499.5,-390.03 499.5,-379.26"/>
<polygon fill="#0aaf2a" stroke="#0aaf2a" stroke-width="1.81" points="501.85,-379.02 499.5,-372.32 497.16,-379.02 501.85,-379.02"/>
<text text-anchor="middle" x="521" y="-395" font-family="Arial" font-size="10.00" fill="#0aaf2a">45.17%</text>
<text text-anchor="middle" x="521" y="-384" font-family="Arial" font-size="10.00" fill="#0aaf2a">4027968×</text>
</g>
<!-- int std::__gcd&lt;int&gt;(int, int) -->
<g id="node17" class="node">
<title>int std::__gcd&lt;int&gt;(int, int)</title>
<polygon fill="#0d1776" stroke="#0d1776" points="769,-372 638,-372 638,-309 769,-309 769,-372"/>
<text text-anchor="middle" x="703.5" y="-360" font-family="Arial" font-size="10.00" fill="#ffffff">matrix_theory_gprof</text>
<text text-anchor="middle" x="703.5" y="-349" font-family="Arial" font-size="10.00" fill="#ffffff">int std::__gcd&lt;int&gt;(int, int)</text>
<text text-anchor="middle" x="703.5" y="-338" font-family="Arial" font-size="10.00" fill="#ffffff">2.47%</text>
<text text-anchor="middle" x="703.5" y="-327" font-family="Arial" font-size="10.00" fill="#ffffff">(2.47%)</text>
<text text-anchor="middle" x="703.5" y="-316" font-family="Arial" font-size="10.00" fill="#ffffff">2006002×</text>
</g>
<!-- Matrix::hermite()&#45;&gt;int std::__gcd&lt;int&gt;(int, int) -->
<g id="edge13" class="edge">
<title>Matrix::hermite()&#45;&gt;int std::__gcd&lt;int&gt;(int, int)</title>
<path fill="none" stroke="#0d1776" stroke-width="0.5" d="M551.24,-416.88C577.67,-403.8 610.1,-387.74 638.23,-373.81"/>
<polygon fill="#0d1776" stroke="#0d1776" stroke-width="0.5" points="639.05,-374.78 641.64,-372.13 637.96,-372.58 639.05,-374.78"/>
<text text-anchor="middle" x="642" y="-395" font-family="Arial" font-size="10.00" fill="#0d1776">2.47%</text>
<text text-anchor="middle" x="642" y="-384" font-family="Arial" font-size="10.00" fill="#0d1776">2006002×</text>
</g>
<!-- Matrix::~Matrix()&#45;&gt;0x0000000000109110 -->
<g id="edge14" class="edge">
<title>Matrix::~Matrix()&#45;&gt;0x0000000000109110</title>
<path fill="none" stroke="#0d1977" stroke-width="0.5" d="M742.86,-411.92C757.99,-400.17 775.33,-386.69 790.77,-374.7"/>
<polygon fill="#0d1977" stroke="#0d1977" stroke-width="0.5" points="791.82,-375.44 793.83,-372.32 790.31,-373.5 791.82,-375.44"/>
<text text-anchor="middle" x="798.5" y="-395" font-family="Arial" font-size="10.00" fill="#0d1977">2.95%</text>
<text text-anchor="middle" x="798.5" y="-384" font-family="Arial" font-size="10.00" fill="#0d1977">259740×</text>
</g>
<!-- random_r -->
<g id="node22" class="node">
<title>random_r</title>
<polygon fill="#0d377f" stroke="#0d377f" points="89,-63 22,-63 22,0 89,0 89,-63"/>
<text text-anchor="middle" x="55.5" y="-51" font-family="Arial" font-size="10.00" fill="#ffffff">libc&#45;2.31.so</text>
<text text-anchor="middle" x="55.5" y="-40" font-family="Arial" font-size="10.00" fill="#ffffff">random_r</text>
<text text-anchor="middle" x="55.5" y="-29" font-family="Arial" font-size="10.00" fill="#ffffff">9.38%</text>
<text text-anchor="middle" x="55.5" y="-18" font-family="Arial" font-size="10.00" fill="#ffffff">(9.38%)</text>
<text text-anchor="middle" x="55.5" y="-7" font-family="Arial" font-size="10.00" fill="#ffffff">4091904×</text>
</g>
<!-- random&#45;&gt;random_r -->
<g id="edge22" class="edge">
<title>random&#45;&gt;random_r</title>
<path fill="none" stroke="#0d377f" stroke-width="0.5" d="M55.5,-102.92C55.5,-91.56 55.5,-78.59 55.5,-66.9"/>
<polygon fill="#0d377f" stroke="#0d377f" stroke-width="0.5" points="56.73,-66.82 55.5,-63.32 54.28,-66.82 56.73,-66.82"/>
<text text-anchor="middle" x="77" y="-86" font-family="Arial" font-size="10.00" fill="#0d377f">9.38%</text>
<text text-anchor="middle" x="77" y="-75" font-family="Arial" font-size="10.00" fill="#0d377f">4091904×</text>
</g>
</g>
</svg>
